{"title":"The Roommate 2011 CAM Xvid READ NFO LKRG","uid":6175433,"size":807415363,"categoryP":"video","categoryS":"movies","magnet":"?xt=urn:btih:0360e14d20e96f9b1c8f4e72e07773a6ea4167b0&amp;dn=The+Roommate+2011+CAM+Xvid+READ+NFO+LKRG&amp;tr=udp%3A%2F%2Ftracker.openbittorrent.com%3A80&amp;tr=udp%3A%2F%2Fopen.demonii.com%3A1337&amp;tr=udp%3A%2F%2Ftracker.coppersurfer.tk%3A6969&amp;tr=udp%3A%2F%2Fexodus.desync.com%3A6969","seeders":0,"leechers":0,"uploader":"qwersd","files":-1,"time":1297756154,"description":"Encoded By .......:Xclusive \nRuntime ..........:1:24 \nIMDb URL .........:http://www.imdb.com/title/tt1265990/\nLanguage .........:English\nFile Size ........:752mb\n\nÃ‚ÂªÃ‚ÂªÃ‚Âª Ã‚ÂªÃ‚ÂªÃ‚Âª \nÃ‚ÂªÃ‚ÂªÃ‚ÂªÃ‚ÂªÃ‚Âª_______________________ Audio/Video _____________________________Ã‚ÂªÃ‚ÂªÃ‚ÂªÃ‚ÂªÃ‚Âª \nVideo\nID : 0\nFormat : MPEG-4 Visual\nFormat profile : Advanced Simple@L5\nFormat settings, BVOP : Yes\nFormat settings, QPel : No\nFormat settings, GMC : No warppoints\nFormat settings, Matrix : Custom\nCodec ID : XVID\nCodec ID/Hint : XviD\nDuration : 1h 24mn\nBit rate : 1 110 Kbps\nWidth : 640 pixels\nHeight : 304 pixels\nDisplay aspect ratio : 2.2:1\nFrame rate : 23.976 fps\nColor space : YUV\nChroma subsampling : 4:2:0\nBit depth : 8 bits\nScan type : Progressive\nBits/(Pixel*Frame) : 0.238\nStream size : 673 MiB (89%)\nWriting library : XviD 1.2.1 (UTC 2008-12-04)\n\nAudio\nID : 1\nFormat : MPEG Audio\nFormat version : Version 1\nFormat profile : Layer 3\nCodec ID : 55\nCodec ID/Hint : MP3\nDuration : 1h 24mn\nBit rate mode : Constant\nBit rate : 128 Kbps\nChannel(s) : 2 channels\nSampling rate : 44.1 KHz\nStream size : 77.7 MiB (10%)\nAlignment : Split accross interleaves\nInterleave, duration : 42 ms (1.00 video frame)\nInterleave, preload duration : 500 ms\n\n\nÃ‚ÂªÃ‚ÂªÃ‚Â»_____________________________________________________________________Ã‚Â»Ã‚ÂªÃ‚Âª \nÃ‚Âª Ã‚ÂªÃ‚ÂªÃ‚Âª \nÃ‚ÂªÃ‚ÂªÃ‚ÂªÃ‚ÂªÃ‚Âª_______________________ _____________________________Ã‚ÂªÃ‚ÂªÃ‚ÂªÃ‚ÂªÃ‚Âª \n\nÃ‚ÂªÃ‚ÂªÃ‚Â»_____________________________________________________________________Ã‚Â»Ã‚ÂªÃ‚Âª \nÃ‚ÂªÃ‚Âª \n\nÃ‚ÂªÃ‚Âª \nÃ‚ÂªÃ‚Âª Ã‚ÂªÃ‚Âª \n\n. \nÃ‚ÂªÃ‚ÂªÃ‚Âª Ã‚ÂªÃ‚ÂªÃ‚Âª \nÃ‚ÂªÃ‚ÂªÃ‚ÂªÃ‚ÂªÃ‚Âª_______________________ Notes _____________________________Ã‚ÂªÃ‚ÂªÃ‚ÂªÃ‚ÂªÃ‚Âª \n\nVideo: A good friend thanks bro\nAudio:Own\n\nOkay this was a interesting project the video has a big ass chair covering a quarter of the screen and had a lot of movement and angle issues,well we fixed the movementand some\nangle problems but i cant crop out the chair would cut majority of the screen so still has cropping issues,also i had to edit about 4 minutes of the movie in the middle due to the video stopped recording\nyou wont miss out on anything major.On to audio our audio was good a few parts are oos because i cant sync when i cant see shit (: but only about 2 3 parts for less then 10 seconds\n\nReally was not going to do this but a lot of people wanted us to so here it is if you really want to see it atleast audio is out now for when a different source shows up anyways once again\n\nd/l sample before bitching and you have been fore warned of all issues so your choice to d/l.\n &lt;a href=&quot;\nhttp://www.grinshare.com/img/W3XG3H.jpg&quot; rel=&quot;nofollow&quot; target=&quot;_NEW&quot;&gt;\nhttp://www.grinshare.com/img/W3XG3H.jpg&lt;/a&gt;","torrent":{"xt":"urn:btih:0360e14d20e96f9b1c8f4e72e07773a6ea4167b0","amp;dn":"The+Roommate+2011+CAM+Xvid+READ+NFO+LKRG","amp;tr":["udp%3A%2F%2Ftracker.openbittorrent.com%3A80","udp%3A%2F%2Fopen.demonii.com%3A1337","udp%3A%2F%2Ftracker.coppersurfer.tk%3A6969","udp%3A%2F%2Fexodus.desync.com%3A6969"],"infoHash":"0360e14d20e96f9b1c8f4e72e07773a6ea4167b0","infoHashBuffer":{"type":"Buffer","data":[3,96,225,77,32,233,111,155,28,143,78,114,224,119,115,166,234,65,103,176]},"announce":[],"urlList":[]}}